<svg xmlns="http://www.w3.org/2000/svg" width="188" height="120" viewBox="0 0 188 120"><circle fill="#EC2024" cx="142.071" cy="45.54" r="43.144"/><path fill="#231F20" d="M1.947 84.698V38.169h15.627c8.123 0 12.184 4.226 12.184 12.676V72.02c0 8.451-4.149 12.678-12.448 12.678H1.947zm22.635-33.853c0-4.912-2.324-7.366-6.97-7.366H7.124v35.908h10.355c4.733 0 7.103-2.456 7.103-7.366V50.845zM58.099 84.698l-2.455-9.229H40.046l-2.324 9.229h-5.11l12.346-46.529h5.973l12.745 46.529h-5.577zM47.813 45.336l-6.637 25.755h13.34l-6.703-25.755zM77.351 84.698c-7.434 0-11.152-3.784-11.152-11.351V38.169h5.178v35.179c0 4.025 1.947 6.039 5.84 6.039h6.571c3.85 0 5.775-2.014 5.775-6.039V38.169h5.178v35.179c0 7.566-3.717 11.351-11.152 11.351h-6.238z"/><path fill="#FFF" d="M134.588 65.477v-4.732c-.715 1.783-1.68 3.016-2.901 3.703-1.222.686-2.952 1.029-5.192 1.029h-7.939c-5.907 0-8.859-3.993-8.859-11.986V26.309h5.652v26.876c0 4.276 1.551 6.415 4.656 6.415h9.008c1.987 0 3.386-.534 4.201-1.604.813-1.068 1.222-2.696 1.222-4.887v-26.8h5.726v39.167h-5.574zM152.263 65.477v12.219h-5.726V26.309h18.324c4.325 0 7.315 1.259 8.972 3.781 1.652 2.518 2.481 6.298 2.481 11.338v11.757c0 8.197-3.816 12.292-11.453 12.292h-12.598zm18.326-25.194c0-2.597-.411-4.583-1.223-5.957-.815-1.374-2.368-2.063-4.659-2.063h-12.444V59.6h12.444c3.921 0 5.882-2.187 5.882-6.568V40.283z"/><g fill="#231F20"><path d="M1.94 113.973V96.326h6.504c2.595 0 3.892 1.436 3.892 4.306v2.492c0 2.769-1.296 4.152-3.89 4.152H3.903v6.696H1.94zm8.434-13.316c0-1.545-.647-2.316-1.939-2.316H3.903v7.073h4.531c1.292 0 1.939-.763 1.939-2.29v-2.467zM14.275 113.973V96.326h1.888v17.646h-1.888zM21.475 113.973c-1.058 0-1.833-.256-2.329-.769-.495-.511-.742-1.27-.742-2.277v-1.888c0-1.912 1.023-2.871 3.071-2.871h5.01v-.98c0-1.442-.647-2.164-1.939-2.164h-5.413v-1.964h5.413c2.518 0 3.776 1.351 3.776 4.053v8.86h-6.847zm5.009-6.142h-4.859c-.973 0-1.46.513-1.46 1.536v1.307c0 .992.487 1.487 1.46 1.487h4.859v-4.33zM32.928 117.976v-1.787h3.65c1.243 0 1.863-.764 1.863-2.29v-1.058h-4.028c-2.517 0-3.776-1.317-3.776-3.952v-7.829h1.888v7.904c0 1.41.655 2.114 1.964 2.114h3.952V101.06h1.913v12.763c0 2.769-1.2 4.153-3.6 4.153h-3.826zM42.922 99.349v-3.022h1.913v3.022h-1.913zm0 14.624V101.06h1.913v12.913h-1.913zM55.784 113.973v-8.836c0-1.409-.503-2.113-1.51-2.113h-3.197c-.654 0-1.112.168-1.372.503-.26.336-.391.88-.391 1.637v8.81h-1.888V101.06h1.813v1.586c.234-.588.558-.999.969-1.233.411-.234.977-.353 1.699-.353h2.845c1.929 0 2.895 1.317 2.895 3.953v8.96h-1.863zM59.536 102.443l.252-6.117h2.039l-.881 6.117h-1.41zM72.046 113.973c-1.057 0-1.833-.256-2.329-.769-.495-.511-.743-1.27-.743-2.277v-1.888c0-1.912 1.024-2.871 3.071-2.871h5.01v-.98c0-1.442-.646-2.164-1.938-2.164h-5.412v-1.964h5.412c2.518 0 3.776 1.351 3.776 4.053v8.86h-6.847zm5.01-6.142h-4.858c-.974 0-1.46.513-1.46 1.536v1.307c0 .992.487 1.487 1.46 1.487h4.858v-4.33zM94.475 113.973v-8.836c0-1.409-.503-2.113-1.511-2.113h-3.197c-.654 0-1.111.168-1.371.503-.26.336-.39.88-.39 1.637v8.81h-1.889V101.06h1.812v1.586c.235-.588.558-.999.969-1.233s.978-.353 1.7-.353h2.845c1.93 0 2.895 1.317 2.895 3.953v8.96h-1.863zM102.404 113.973c-2.516 0-3.775-1.353-3.775-4.06v-4.818c0-2.708 1.26-4.061 3.775-4.061h2.292c2.533 0 3.801 1.355 3.801 4.067v3.208h-8.031v1.561c0 1.443.646 2.164 1.938 2.164h5.739v1.938h-5.739zm4.281-8.91c0-1.444-.654-2.166-1.963-2.166h-2.317c-1.292 0-1.938.722-1.938 2.166v1.586h6.219v-1.586zM120.404 113.973l-2.67-10.068-2.668 10.068h-1.813l-3.7-12.913h1.963l2.72 10.246 2.693-10.246h1.763l2.719 10.246 2.719-10.246h1.888l-3.7 12.913h-1.914zM134.5 117.976v-1.787h3.978c1.241 0 1.862-.764 1.862-2.29v-1.058h-4.203c-2.518 0-3.776-1.317-3.776-3.952v-3.776c0-2.702 1.259-4.053 3.776-4.053h6.116v12.763c0 2.769-1.199 4.153-3.599 4.153H134.5zm5.84-14.953h-4.128c-1.31 0-1.963.722-1.963 2.164v3.776c0 1.41.653 2.114 1.963 2.114h4.128v-8.054zM147.514 113.973c-1.057 0-1.833-.256-2.328-.769-.495-.511-.743-1.27-.743-2.277v-1.888c0-1.912 1.023-2.871 3.071-2.871h5.009v-.98c0-1.442-.646-2.164-1.938-2.164h-5.411v-1.964h5.411c2.518 0 3.776 1.351 3.776 4.053v8.86h-6.847zm5.008-6.142h-4.857c-.974 0-1.459.513-1.459 1.536v1.307c0 .992.485 1.487 1.459 1.487h4.857v-4.33zM171.177 113.973v-8.836c0-1.409-.504-2.113-1.511-2.113h-2.265c-.487 0-.869.163-1.146.49-.277.327-.416.868-.416 1.623v8.836h-1.862v-8.836c0-.755-.135-1.296-.403-1.623-.268-.327-.646-.49-1.132-.49h-2.04c-.653 0-1.111.168-1.371.503-.261.336-.391.88-.391 1.637v8.81h-1.888V101.06h1.812v1.586c.236-.588.559-.999.97-1.233s.978-.353 1.698-.353h1.712c1.294 0 2.124.63 2.493 1.888.219-.705.566-1.196 1.045-1.473.477-.276 1.069-.415 1.774-.415h1.888c1.947 0 2.92 1.317 2.92 3.953v8.96h-1.887zM179.131 113.973c-2.517 0-3.775-1.353-3.775-4.06v-4.818c0-2.708 1.259-4.061 3.775-4.061h2.29c2.536 0 3.802 1.355 3.802 4.067v3.208h-8.029v1.561c0 1.443.646 2.164 1.938 2.164h5.74v1.938h-5.741zm4.279-8.91c0-1.444-.654-2.166-1.963-2.166h-2.316c-1.292 0-1.938.722-1.938 2.166v1.586h6.217v-1.586z"/></g></svg>